<?xml version="1.0" encoding="utf-8"?>
<!-- Generator: Adobe Illustrator 17.1.0, SVG Export Plug-In . SVG Version: 6.00 Build 0)  -->
<!DOCTYPE svg PUBLIC "-//W3C//DTD SVG 1.1//EN" "http://www.w3.org/Graphics/SVG/1.1/DTD/svg11.dtd">
<svg version="1.1" id="Layer_10" xmlns="http://www.w3.org/2000/svg" xmlns:xlink="http://www.w3.org/1999/xlink" x="0px" y="0px"
	 viewBox="0 0 791.9 227.8" enable-background="new 0 0 791.9 227.8" xml:space="preserve">
<path fill="#0098FF" d="M0.1,0h26.3c79.2,0,110.6,54.9,110.6,115.2c0,62.5-39.4,112.3-110.6,112.3H0.1V0z"/>
<polygon fill="#0098FF" points="114.6,0 177.4,0 206.5,64.5 237.2,0 300.4,0 235.8,123.1 235.8,227.5 177.4,227.5 177.4,121 "/>
<polygon fill="#0098FF" points="456.4,0 519.1,0 548.2,64.5 578.9,0 642.1,0 576,123.1 576,227.5 519.1,227.5 519.1,121 "/>
<rect x="304.8" y="0" fill="#0098FF" width="59.2" height="227.5"/>
<polygon fill="#0098FF" points="418.8,0 482,0 340.4,162.6 340.4,90.3 "/>
<polygon fill="#0098FF" points="352.1,152.2 352.1,72.8 501.6,227.8 430.5,227.8 "/>
<path fill="#0098FF" d="M648.8,227.5V0h64c30.6,0,66.1,21.4,66.1,61.3s-34.2,60.4-64.6,60.4v106.2h-65.6v-0.3H648.8z"/>
<path fill="#0098FF" d="M731.6,115.6c37.8,0,60.4,26,60.4,56c0,42.2-27.8,56-83.9,56V115.6H731.6z"/>
</svg>
